<svg id="drawing" xmlns="http://www.w3.org/2000/svg" viewBox="0 0 1112.73 633.27"><defs><style>.cls-1,.cls-3{fill:none;}.cls-1,.cls-2,.cls-3,.cls-4{stroke:#000;stroke-miterlimit:10;}.cls-1,.cls-2{stroke-width:8.23px;}.cls-3,.cls-4{stroke-width:0.32px;}</style></defs><title>foxtail2.0</title><path id="TailOutline" class="cls-1" d="M655.31,113.48c4.36-3.09,131.4-100.22,266,30.17,0,0-282.5-86.4-405.92,215.3,0,0,63.08-89.13,171.42-72.68,0,0-100.11,24.69-187.88,207.08,0,0-123.42,231.76-396.32,200.22V614s91.88,16.46,138.5-113.82c0,0,35.66-323.65,307.19-407.3,0,0,96.78-38.42,180.43-12.37" transform="translate(-98.53 -67.37)"/><path class="cls-2" d="M311.39,292v28.58l61-21.95L355.89,384s58.51-19.56,74.06-7.68c0,0-31.09,94.17-15.55,103.31l59.43-18.28L459.2,505.23,503.56,484S387,722.82,102.65,693.57V614s100.56,6.4,138.5-113.82C241.15,500.21,273.28,332.89,311.39,292Z" transform="translate(-98.53 -67.37)"/><path id="TailOutline-2" data-name="TailOutline" class="cls-3" d="M1200.27,468.43c.17-.12,5.13-3.92,10.4,1.18,0,0-11.05-3.38-15.87,8.41a7.32,7.32,0,0,1,6.7-2.84s-3.91,1-7.34,8.09c0,0-4.83,9.06-15.49,7.83V488s3.59.64,5.41-4.45c0,0,1.39-12.65,12-15.92,0,0,3.78-1.5,7.05-.48" transform="translate(-98.53 -67.37)"/><path class="cls-4" d="M1186.83,475.4v1.12l2.38-.86-.64,3.34s2.28-.76,2.89-.3c0,0-1.22,3.68-.61,4l2.32-.72-.57,1.72,1.74-.83a15.83,15.83,0,0,1-15.67,8.19V488s3.93.25,5.41-4.45C1184.08,483.54,1185.34,477,1186.83,475.4Z" transform="translate(-98.53 -67.37)"/></svg>