<svg id="drawing" xmlns="http://www.w3.org/2000/svg" viewBox="0 0 837.96 633.27"><defs><style>.cls-1{fill:none;}.cls-1,.cls-2{stroke:#000;stroke-miterlimit:10;stroke-width:8.23px;}</style></defs><title>foxtail2.0</title><path id="TailOutline" class="cls-1" d="M655.31,113.48c4.36-3.09,131.4-100.22,266,30.17,0,0-282.5-86.4-405.92,215.3,0,0,63.08-89.13,171.42-72.68,0,0-100.11,24.69-187.88,207.08,0,0-123.42,231.76-396.32,200.22V614s91.88,16.46,138.5-113.82c0,0,35.66-323.65,307.19-407.3,0,0,96.78-38.42,180.43-12.37" transform="translate(-98.53 -67.37)"/><path class="cls-2" d="M311.39,292v28.58l61-21.95L355.89,384s58.51-19.56,74.06-7.68c0,0-31.09,94.17-15.55,103.31l59.43-18.28L459.2,505.23,503.56,484S387,722.82,102.65,693.57V614s100.56,6.4,138.5-113.82C241.15,500.21,273.28,332.89,311.39,292Z" transform="translate(-98.53 -67.37)"/></svg>