<?xml version="1.0" encoding="utf-8"?><svg width="229" height="179" viewBox="0 0 229 179" xmlns="http://www.w3.org/2000/svg" xmlns:xlink="http://www.w3.org/1999/xlink"><svg viewBox="0 0 42.81 58.23" width="42.81" height="58.23" id="GoIcon" x="186.14" xmlns="http://www.w3.org/2000/svg"><g data-name="Layer 2"><path d="M42.81 31.17c-.26.33-.47.86-.79.95a3.68 3.68 0 0 1-1.68 0 3.94 3.94 0 0 1-1-.6c.08 2.5.18 4.91.24 7.32A23.51 23.51 0 0 1 38 48.59a41.48 41.48 0 0 1-2.4 4.33 19.64 19.64 0 0 1 1.88 2.42 1.63 1.63 0 0 1-.75 2.45 1.55 1.55 0 0 1-2.2-.38 19.19 19.19 0 0 0-1.61-1.75 1.28 1.28 0 0 0-1.13-.19c-4.12 1.91-8.49 2.28-12.94 2.15a22.69 22.69 0 0 1-7.17-1.47 2.33 2.33 0 0 0-1.7.37 19.11 19.11 0 0 0-2.12 1.71H6.17c-1.56-1.41-1.6-2.34-.1-3.68.43-.39.93-.7 1.43-1.07-.35-.35-.69-.66-1-1a10.27 10.27 0 0 1-2.94-7.34c.11-3.91.12-7.82.17-11.73V32a1.53 1.53 0 0 0-.3.13C1.6 33.4 1.31 33.35 0 31.51v-1c1-1.26 2.49-1.42 4-1.85-.73-5.73-1.65-11.47-.2-17.23L3 11A4 4 0 0 1 .63 6.84a3.66 3.66 0 0 1 3.21-3.48 17.55 17.55 0 0 1 3.44.28 1.56 1.56 0 0 0 .87-.1A18.32 18.32 0 0 1 15.4.68C17.11.4 18.83.22 20.55 0H25c.28.06.55.13.83.17a14.45 14.45 0 0 1 6 1.84 4 4 0 0 0 3.71.52A4 4 0 0 1 40.6 4.9a4 4 0 0 1-2.09 5.23c-.45.25-.47.46-.37.94a26.06 26.06 0 0 1 .73 4.19c.15 3.47.16 7 .22 10.43v2.4c1.42.48 2.83.53 3.72 1.71zM38.58 29h-.07v-9.84a32.85 32.85 0 0 0-1.15-8.7C35.84 5.11 32.49 1.84 27 1a33.35 33.35 0 0 0-14.25 1c-4.56 1.24-7.12 4.42-8.22 8.85a30.77 30.77 0 0 0-.67 11.47 55.45 55.45 0 0 1 .55 10.14c-.19 4.33-.14 8.67-.21 13a9.46 9.46 0 0 0 3.26 7.09 6.27 6.27 0 0 0 1.43.76c.45.23 1.06.36 1.31.74 1 1.45 2.54 1.87 4.08 2.27a30 30 0 0 0 12.72.09 16.11 16.11 0 0 0 7.63-3.71 10 10 0 0 0 2.84-4.32A26.53 26.53 0 0 0 39 37.7zM3.87 10.69c.1-.29.18-.53.27-.76.29-.71.59-1.37-.14-2.06-.2-.18-.14-.87.06-1.15a1.92 1.92 0 0 1 1.07-.5c.19 0 .42.08.62.12l1.52-2a4.74 4.74 0 0 0-4.69.21 3.2 3.2 0 0 0-1.32 3.36 3.41 3.41 0 0 0 2.61 2.78zm31.91-5.22c.66-.26 1.3-.44 1.78.24s.16 1.22-.32 1.75a.7.7 0 0 0-.1.57c.19.58.44 1.15.68 1.76a3.47 3.47 0 0 0 2.42-2.88 3.24 3.24 0 0 0-1.52-3.38 4.59 4.59 0 0 0-4.51 0zM11 55.44c-1.62-2.16-2.62-2.38-4.45-.9-1.3 1-1.58 2-.87 2.79L7 55.46l.2.15c-.32.5-.65 1-1 1.49s-.09.71.4.88c.74.25 1.24-.17 1.77-.57zm21.59-.63l2.12 2.31c.18.18.36.44.57.49a5.44 5.44 0 0 0 1.14 0 2.87 2.87 0 0 0-.05-.93 11.42 11.42 0 0 0-.67-1.3l.24-.13L37 57.19c.78-.92.35-2.33-1.06-3.43-1.22-.96-2.16-.64-3.35 1.05zM.75 31.9c.41.79.65.9 1.35.65C3.62 32 4.15 31 3.8 29.1a5.23 5.23 0 0 0-3.22 1.26c-.23.24-.17.77-.28 1.3l1.21-.56.09.18zm38.55-3.48c-.29 2.2.13 3.12 1.53 3.56.54.17 1.06.16 1.32-.55l-1-.8c.17 0 .24-.08.27-.06l1 .53c.37-.78.26-1.35-.48-1.7s-1.71-.64-2.64-.98z"/><path d="M23.63 17.71v1.92c0 .62-.08 1.22-.8 1.42a1.28 1.28 0 0 1-1.7-.62 5.45 5.45 0 0 1-.51.47 1.17 1.17 0 0 1-2-.75 17 17 0 0 1 0-2.48h-.08c-.86 0-1.61-.14-1.9-1.08a1.89 1.89 0 0 1 1-2.18c.43-.29.85-.48 1-1.13.22-.87 1.52-1.32 2.88-1.19a1.73 1.73 0 0 1 1.78 1.48c.07.21.36.38.59.5a2.68 2.68 0 0 1 1.65 1.83 1.39 1.39 0 0 1-1.38 1.81zm.45-.2c.32-.24.87-.44 1.05-.82a1.48 1.48 0 0 0-.63-1.87c-.52-.37-1.06-1.05-1.79-.55a3.42 3.42 0 0 1-3.49.23 1.78 1.78 0 0 0-2.32 1.33 1.16 1.16 0 0 0 1.31 1.45 5.53 5.53 0 0 0 1.66-.35 3 3 0 0 1 2.55.11 11.63 11.63 0 0 0 1.66.47zM21 17a14.2 14.2 0 0 0-1.46.4.88.88 0 0 0-.51.47 7 7 0 0 0-.16 2 1.39 1.39 0 0 0 .82 1 .92.92 0 0 0 1.16-.87c.15-1 .15-2 .15-3zm.37 0v3.16a1.09 1.09 0 0 0 .78.7c.31 0 1-.25 1-.44a6 6 0 0 0-.1-2.51c-.11-.48-.97-.64-1.65-.98zM13.91 3.57a5.44 5.44 0 0 1 5.6 5.34A5.57 5.57 0 0 1 8.37 9a5.42 5.42 0 0 1 5.54-5.43zm0 .3a5.12 5.12 0 0 0-5.26 5A5.15 5.15 0 0 0 14 14a5.16 5.16 0 0 0 5.23-5.09A5.13 5.13 0 0 0 14 3.87zM27.67 13.76A5.53 5.53 0 0 1 22 8.49a5.58 5.58 0 0 1 11.16-.25 5.23 5.23 0 0 1-5.49 5.52zm-5.4-5.45a5.21 5.21 0 0 0 5.29 5.15 5 5 0 0 0 5.28-5 5.29 5.29 0 0 0-10.57-.15z"/><path d="M12.85 9.23A1.75 1.75 0 0 1 11.06 11a1.8 1.8 0 0 1-1.89-1.78A1.83 1.83 0 0 1 11 7.43a1.8 1.8 0 0 1 1.85 1.8zM24.73 7a1.79 1.79 0 0 1 1.81 1.77 1.81 1.81 0 0 1-1.88 1.8 1.88 1.88 0 0 1-1.84-1.78A1.86 1.86 0 0 1 24.73 7z"/></g></svg><svg viewBox="0 0 61.98 53.25" width="61.98" height="53.25" id="ReactIcon" x="63.99" xmlns="http://www.w3.org/2000/svg"><g data-name="Layer 2"><path d="M62 25.7v2.06c-1 1.39-1.8 3.09-3.11 4.11a37.87 37.87 0 0 1-6.19 3.57 33.73 33.73 0 0 1-3.57 1.35c.14.65.28 1.18.39 1.72.71 3.57 1 7.14-.33 10.63-1.2 3.28-3.83 4.64-7.24 3.93a19.26 19.26 0 0 1-7.74-3.85c-1-.79-2-1.65-3.08-2.5l-1.83 1.54a22.51 22.51 0 0 1-8.3 4.53c-4.47 1.26-7.59-.41-8.51-4.82a27.79 27.79 0 0 1 .42-11c-2.65-1.25-5.21-2.31-7.63-3.63A9.94 9.94 0 0 1 0 27.25V25.7a8.36 8.36 0 0 1 3.41-4.65 61.8 61.8 0 0 1 5.7-3.13 31.28 31.28 0 0 1 3.48-1.27c-.17-3.27-.49-6.37-.44-9.47a11.69 11.69 0 0 1 1.25-4.36 4.57 4.57 0 0 1 4-2.63 9.82 9.82 0 0 1 5.92 1.21c2.68 1.53 5.24 3.3 7.93 5L32.93 5A22.74 22.74 0 0 1 41 .43c4.27-1.3 7.27.37 8.36 4.66a12.72 12.72 0 0 1 .48 3.67c-.12 2.62-.44 5.23-.66 7.62 2.64 1.25 5.33 2.43 7.92 3.79A9.63 9.63 0 0 1 62 25.7zM31 36.22c1.54 0 3.09.08 4.62 0a2.22 2.22 0 0 0 1.54-.84q2.47-3.9 4.72-7.92a2.07 2.07 0 0 0 0-1.72q-2.28-4-4.76-7.9a2 2 0 0 0-1.45-.84c-3.08-.07-6.16-.08-9.24 0a2.34 2.34 0 0 0-1.63 1q-2.43 3.83-4.64 7.81a2.07 2.07 0 0 0 0 1.72c1.46 2.61 3.05 5.14 4.54 7.73a1.93 1.93 0 0 0 1.9 1c1.47-.06 2.93-.04 4.4-.04zm2 8.71a22.5 22.5 0 0 0 8.65 5.45c3 .9 4.67-.08 5.47-3.08.84-3.17.35-6.29-.35-9.39-.06-.27-.76-.6-1.12-.56-2.29.27-4.57.62-6.85 1a1.72 1.72 0 0 0-1 .5c-1.62 1.97-3.2 4-4.8 6.08zM13.67 19.05c-3.55 1-7 2.28-9.66 4.86-1.78 1.7-1.88 3.23-.22 5 2.68 2.88 6.2 4.27 9.85 5.35 1-2.47 2-4.82 3-7.18a1.27 1.27 0 0 0 0-.86c-.96-2.34-1.94-4.69-2.97-7.17zm1.83 18.42a20.92 20.92 0 0 0-.5 10.12c.54 2.43 2 3.46 4.41 3 3.93-.72 6.93-3.09 9.78-5.61-1.71-2.08-3.3-4-4.93-6a1.82 1.82 0 0 0-1.07-.53c-2.51-.31-5.01-.63-7.69-.98zm31-21.6c.86-3.58 1.4-7.11.32-10.66-.75-2.37-2.2-3.21-4.55-2.59A21.61 21.61 0 0 0 33 8.31c1.65 2 3.22 4 4.82 6a1.52 1.52 0 0 0 .83.51c2.52.35 5.09.68 7.82 1.05zM29.15 8.38a22.11 22.11 0 0 0-9.34-5.64c-2.52-.65-4 .14-4.65 2.63-1 3.53-.48 7 .44 10.46a1.42 1.42 0 0 0 .44.08c2.4-.36 4.8-.7 7.2-1.1a2.09 2.09 0 0 0 1.14-.67c1.62-1.85 3.11-3.75 4.77-5.76zm19.34 25.75a23.56 23.56 0 0 0 9-4.45c2.51-2.18 2.53-4.14 0-6.26a22.59 22.59 0 0 0-9.09-4.31c-1 2.39-2 4.7-2.93 7a1.19 1.19 0 0 0 0 .83c.94 2.37 1.96 4.71 3.02 7.19zM40 35.79l6-1-2.18-5.34zm-5.12 2.9H27.3l3.8 4.45zM16.17 35l5.83.9-3.78-6.25zm27.57-11.37l2-5.29-5.78-1zm-25.5.06L22 17.42l-5.69 1zm9.16-9.25h7.3L31 10.15c-1 1.13-1.91 2.14-2.8 3.17-.2.28-.42.6-.8 1.12z"/><path d="M36.07 26.57a5.24 5.24 0 0 1-5.29 5.29 5.28 5.28 0 1 1 0-10.55 5.12 5.12 0 0 1 5.29 5.26z"/></g></svg><svg viewBox="0 0 58.75 58.75" width="58.75" height="58.75" id="aiIcon" x="104.41999999999999" y="85.14" xmlns="http://www.w3.org/2000/svg"><g data-name="Layer 2"><path d="M0 58.75V0h58.75v58.75zM3.67 55H55V3.75H3.67z"/><path d="M37.84 44.34H30.9c-.64-2.13-1.32-4.23-1.9-6.35a1.16 1.16 0 0 0-1.36-1H21.5c-.82 0-1.23.19-1.44 1.06-.43 1.85-1 3.68-1.54 5.5-.1.33-.5.79-.78.8-2 .06-4 0-6.14 0l2.48-8.09c2-6.54 4-13.07 6-19.62.23-.79.55-1.12 1.41-1.1 2.17.06 4.35 0 6.53 0a1 1 0 0 1 1.22.84c2.83 9.3 5.7 18.56 8.6 27.96zM24.51 20.63h-.22l-3 11.41h6.39zM40.56 23.56h6.37v20.72h-6.37zM43.63 20.88a3.26 3.26 0 1 1 .1-6.52 3.27 3.27 0 1 1-.1 6.52z"/></g></svg><svg viewBox="0 0 25.57 15.42" width="25.57" height="15.42" id="awsIcon" x="186.14" y="126.55999999999999" xmlns="http://www.w3.org/2000/svg"><g data-name="Layer 2"><path d="M12.97 2.16c-.38 1.6-.77 3.21-1.15 4.81-.12.47-.18.89-.87.88a1 1 0 0 1-1.12-.82c-.64-2.24-1.33-4.46-2-6.69C9.16.02 9.29.1 9.58 1.26a40.21 40.21 0 0 0 1.39 4.69c.38-1.59.77-3.17 1.13-4.76.13-.57.21-1 1-1s.82.5.94 1a41.82 41.82 0 0 0 1.34 4.82c.2-.71.4-1.41.59-2.12a25.42 25.42 0 0 0 .68-2.67c.16-1 .69-1.19 1.62-.93a2.68 2.68 0 0 1-.07.56c-.64 2.09-1.31 4.17-1.92 6.27-.18.63-.52.73-1.09.74s-.75-.28-.86-.77c-.37-1.64-.78-3.27-1.18-4.91zM23.25 11.88a15.33 15.33 0 0 1-9.32 3.5A18.19 18.19 0 0 1 0 10.49a28.51 28.51 0 0 0 11.48 3.26 30.17 30.17 0 0 0 11.77-1.87zM5.51 3.4c.34-1.55-.36-2.42-2-2.25a20.61 20.61 0 0 0-2.15.46C1.13 1.05 1.2.55 1.78.45a13.24 13.24 0 0 1 3.3-.32 2 2 0 0 1 1.83 2.16v3a3.54 3.54 0 0 0 .25 1.3c.22.49.21.8-.29 1.09s-.8-.06-1-.45l-.04-.01a13.43 13.43 0 0 1-2.64.76 2.06 2.06 0 0 1-2.41-2 2.34 2.34 0 0 1 2.07-2.56 23.55 23.55 0 0 1 2.66-.02zm-1.47.9a6 6 0 0 0-.78.13 1.24 1.24 0 0 0-1 1.62 1.11 1.11 0 0 0 1.42.87 2.32 2.32 0 0 0 1.33-.58 3.2 3.2 0 0 0 .48-1.61c0-.09-.67-.27-1-.39a3.34 3.34 0 0 0-.45-.04zM24.12 1.44a19.91 19.91 0 0 0-2.32-.33c-.59 0-1.23.16-1.32.92s.5.95 1 1.15 1.13.36 1.69.55a2 2 0 0 1 1.45 1.92 2.11 2.11 0 0 1-1.31 2 4.56 4.56 0 0 1-3.87-.07c-.29-.13-.39-.67-.68-1.21 1 .22 1.75.42 2.48.51a2.13 2.13 0 0 0 1.2-.17 1.37 1.37 0 0 0 .73-.87 1.34 1.34 0 0 0-.63-.93 8.22 8.22 0 0 0-1.58-.56c-1.35-.44-2.06-1.33-1.93-2.41a2.45 2.45 0 0 1 2.58-2 10.43 10.43 0 0 1 1.76.2.84.84 0 0 1 .75 1.3z"/><path d="M21.04 10.6a5.36 5.36 0 0 1 4.09-.65c.18 0 .43.42.43.65a4.45 4.45 0 0 1-1.7 3.62c.23-.72.5-1.43.68-2.15.27-1.06 0-1.44-1.11-1.46z"/></g></svg><svg viewBox="0 0 52.26 59.04" width="52.26" height="59.04" id="cssIcon" y="85.14" xmlns="http://www.w3.org/2000/svg"><path d="M45.75 59H6.51c-1.43-.5-1.83-1.59-1.8-3V45.49c0-.4-.11-.51-.5-.5a7.1 7.1 0 0 1-1.73-.12A3.18 3.18 0 0 1 0 41.49V24.56a4.14 4.14 0 0 1 .06-.7A3.22 3.22 0 0 1 1.6 21.6a4.39 4.39 0 0 1 2.46-.47c.75 0 .66.09.66-.64V2.62A2.4 2.4 0 0 1 5.41.69 8.17 8.17 0 0 1 6.51 0h28.86a6.17 6.17 0 0 1 .63.59q2.53 2.87 5.06 5.75C43.05 8.57 45 10.82 47 13a2.26 2.26 0 0 1 .58 1.58v6.08c0 .36.1.45.45.45a8 8 0 0 1 2 .16 3.23 3.23 0 0 1 2.32 3.32v16.88a3.2 3.2 0 0 1-2.46 3.32 8.47 8.47 0 0 1-1.68.14c-.58 0-.59 0-.59.59v10.93a2.38 2.38 0 0 1-.69 1.89 7.22 7.22 0 0 1-1.18.66zM26.14 21.13h18.57c.44 0 .56-.12.55-.55v-4.67c0-.62 0-.62-.61-.62h-9.34c-1.06 0-1.45-.39-1.45-1.45V2.9c0-.59 0-.59-.58-.59H7.58c-.45 0-.58.12-.58.58v17.68c0 .57 0 .57.6.57zm0 23.82H7.57c-.45 0-.58.12-.57.58v10c0 .43.11.56.55.56h37.16c.43 0 .55-.12.55-.56v-10c0-.61 0-.61-.61-.61zm8.4-7.52a.45.45 0 0 0-.09.16c-.19.79-.39 1.58-.58 2.38-.15.63-.15.64.47.87a11.74 11.74 0 0 0 6.76.52 5.3 5.3 0 0 0 4.31-3.69 4.84 4.84 0 0 0-1.51-5.06 12 12 0 0 0-2.9-1.56 17.75 17.75 0 0 1-2.21-1 1.82 1.82 0 0 1-.78-.93c-.31-.88.22-1.65 1.28-1.93a7.22 7.22 0 0 1 4.37.51c.29.11.41.12.49-.21.19-.78.4-1.55.64-2.32.12-.38 0-.55-.36-.68a11.66 11.66 0 0 0-3.55-.65 8.33 8.33 0 0 0-4.65 1.11 4.61 4.61 0 0 0-.76 7.4A9.19 9.19 0 0 0 38.33 34c.69.28 1.4.55 2.07.88a1.91 1.91 0 0 1 1.19 1.47 1.79 1.79 0 0 1-1.62 2 6.71 6.71 0 0 1-2.89-.09c-.85-.26-1.68-.57-2.53-.83zm-9.84 4.18a8.36 8.36 0 0 0 4.82-1.19 5 5 0 0 0 1.88-6 5.63 5.63 0 0 0-3-2.82c-1.13-.53-2.29-1-3.42-1.55a1.45 1.45 0 0 1-.9-1.39 1.42 1.42 0 0 1 1-1.32 3.4 3.4 0 0 1 1-.28 7.86 7.86 0 0 1 3.77.61c.29.12.42.16.51-.23.17-.75.4-1.48.62-2.22.16-.55.16-.57-.4-.77a11 11 0 0 0-3.42-.62A8.2 8.2 0 0 0 22.22 25a4.62 4.62 0 0 0-.35 7.49 12.38 12.38 0 0 0 3 1.62 12.86 12.86 0 0 1 2.14 1 1.59 1.59 0 0 1-.14 2.89 3.72 3.72 0 0 1-1.43.39 8.82 8.82 0 0 1-4.38-.88c-.31-.14-.42-.09-.49.22-.19.83-.37 1.66-.6 2.47-.09.33 0 .45.28.57a12 12 0 0 0 4.46.84zm-10.93 0a12.14 12.14 0 0 0 3.86-.61c.29-.1.34-.25.29-.52-.14-.71-.26-1.42-.41-2.12s-.11-.55-.64-.39a8.28 8.28 0 0 1-4.83.06 4.4 4.4 0 0 1-2.71-2.23 6.86 6.86 0 0 1-.47-5 4.68 4.68 0 0 1 3.58-3.55 7.73 7.73 0 0 1 4.54.27c.37.12.47 0 .55-.3.19-.78.38-1.55.59-2.32.08-.28 0-.42-.27-.49a15.65 15.65 0 0 0-1.63-.41 12.28 12.28 0 0 0-5.68.33 8.15 8.15 0 0 0-5 4.14 9.92 9.92 0 0 0-.72 7.06 7.4 7.4 0 0 0 3.78 5 10.42 10.42 0 0 0 5.18 1.08z" data-name="Layer 2"/></svg><svg viewBox="0 0 43.97 62.37" width="43.97" height="62.37" id="htmlIcon" y="22.77" xmlns="http://www.w3.org/2000/svg"><g data-name="Layer 2"><path d="M0 12.66h44c-.2 2.36-.39 4.65-.59 6.94l-1.8 20q-.78 8.4-1.5 16.8a1.45 1.45 0 0 1-1.26 1.49c-5.31 1.43-10.61 2.93-15.93 4.36a3.9 3.9 0 0 1-1.92 0c-5.28-1.42-10.54-2.92-15.82-4.34a1.52 1.52 0 0 1-1.35-1.55Q2.9 45.2 1.89 34.05 1 24.23.12 14.42C.07 13.88 0 13.33 0 12.66zM9.69 38.5h19c-.19 2.3-.35 4.4-.58 6.49a1.15 1.15 0 0 1-.71.72q-2.52.75-5.09 1.39a2.44 2.44 0 0 1-1.14 0c-1.52-.38-3-.83-4.53-1.21a1 1 0 0 1-.93-1.1c-.05-1.23-.22-2.45-.34-3.63H9.92c.23 2.62.5 5.15.65 7.68a1.25 1.25 0 0 0 1.13 1.33c3.25.87 6.48 1.78 9.73 2.66a2.25 2.25 0 0 0 1.12.06c3.36-.9 6.71-1.81 10.05-2.79a1.34 1.34 0 0 0 .77-.93c.5-5.06 1-10.12 1.4-15.18v-1.11h-10c-3.05 0-6.1.08-9.15.08-.34 0-1-.27-1-.48-.21-1.68-.32-3.38-.47-5.2h1.55l18.42.12c.51 0 1.18.19 1.25-.65.14-1.62.26-3.24.39-4.86H8.19c.5 5.55.99 10.99 1.5 16.61zM25.5 8.43h-2.7V.33c2.54-1 3.67.57 4.63 2.86 1.07-2.08 2-4 4.68-2.85v8.07h-2.68V4.89l-.28-.1-1.71 2.54-1.7-2.55-.24.06zM4.49.2h2.7v2.6h2.58V.19h2.72V8.4H9.84l-.11-2.64H7.24v2.66H4.49zM19.08 8.44h-2.85V2.91h-2.36V.2h7.61v2.6l-2.4.14zM36.36.2v5.45h3.86v2.79h-6.59V.2z"/></g></svg><svg viewBox="0 0 35.2 34.28" width="35.2" height="34.28" id="idIcon" x="186.14" y="58.23" xmlns="http://www.w3.org/2000/svg"><defs><style>.gcls-1{fill:#fff}</style></defs><g id="gLayer_2" data-name="Layer 2"><g id="gicons"><path d="M35.2 34.28H0V0h35.2zm-8-8.12V7.81h-4.09v6.62a11.1 11.1 0 0 0-1.59-.89 5.6 5.6 0 0 0-6.29 1.79 8 8 0 0 0-.23 8.82 5.2 5.2 0 0 0 7.68 1.15c.27-.24.51-.52.81-.83l.23 1.69zm-19.2 0h4V8.75H8z"/><path class="gcls-1" d="M27.18 26.16h-3.47l-.23-1.69c-.3.31-.54.59-.81.83A5.2 5.2 0 0 1 15 24.15a8 8 0 0 1 .24-8.82 5.6 5.6 0 0 1 6.29-1.79 11.1 11.1 0 0 1 1.59.89V7.81h4.07zm-4-6.48c0-.35 0-.79-.08-1.21a2.39 2.39 0 0 0-1.94-2.18 2.52 2.52 0 0 0-2.84 1.62 5 5 0 0 0-.19 3.27 2.53 2.53 0 0 0 2.78 2.13c1.22-.07 2-.92 2.21-2.42.03-.37.02-.76.04-1.21zM8 26.16V8.75h4v17.41z"/><path d="M23.16 19.68c0 .45 0 .84-.06 1.21-.2 1.5-1 2.35-2.21 2.42a2.53 2.53 0 0 1-2.78-2.13 5 5 0 0 1 .19-3.27 2.52 2.52 0 0 1 2.84-1.62 2.39 2.39 0 0 1 1.94 2.18c.06.42.06.86.08 1.21z"/></g></g></svg><svg viewBox="0 0 29.4 33.17" width="29.4" height="33.17" id="jsIcon" x="33.21" y="144.18" xmlns="http://www.w3.org/2000/svg"><g data-name="Layer 2"><path d="M14.3 33.17a50.37 50.37 0 0 1-5.31-3L9 30a4.63 4.63 0 0 0 1.14-.47 1.66 1.66 0 0 1 2.25.13c.58.44 1.25.75 1.87 1.14a.71.71 0 0 0 .81 0L26.82 24a.71.71 0 0 0 .4-.71V9.83a.78.78 0 0 0-.42-.75q-5.86-3.34-11.7-6.73a.74.74 0 0 0-.81 0Q8.46 5.74 2.6 9.11a.76.76 0 0 0-.43.74v13.46a.74.74 0 0 0 .41.71c1 .57 2 1.19 3 1.73a3.55 3.55 0 0 0 1.43.39 1.48 1.48 0 0 0 1.54-1.53V11.19c0-.74.05-.78.81-.78h.92c.31 0 .56.18.56.56v13.24a7.65 7.65 0 0 1-.2 1.78 3.2 3.2 0 0 1-3.19 2.41 5.85 5.85 0 0 1-3.14-.86c-1-.55-2-1.13-2.95-1.7A2.59 2.59 0 0 1 0 23.43V9.73a2.64 2.64 0 0 1 1.42-2.47L13.29.41A2.64 2.64 0 0 1 16.1.4L28 7.28a2.56 2.56 0 0 1 1.39 2.34v13.9A2.56 2.56 0 0 1 28 25.86l-12 6.92a7.61 7.61 0 0 1-.93.39z"/><path d="M18.45 9.46a11 11 0 0 1 4 .68 4.48 4.48 0 0 1 2.77 4c0 .38-.15.55-.51.56h-1.55c-.17 0-.44-.17-.47-.31-.4-1.9-1.77-2.43-3.46-2.46a20.29 20.29 0 0 0-2.7.17 2.62 2.62 0 0 0-1 .43 1.5 1.5 0 0 0-.61 1.54c.07.57.5.79 1 .9.83.21 1.68.37 2.52.52l3.92.66a5 5 0 0 1 .66.19 3.42 3.42 0 0 1 2.79 3 4.09 4.09 0 0 1-1.94 4.16 8.38 8.38 0 0 1-4.32 1.1 11.31 11.31 0 0 1-5.14-.81 4.34 4.34 0 0 1-2.66-3.92c0-.59.09-.71.69-.72a12.34 12.34 0 0 1 1.36 0c.18 0 .48.23.5.38.25 1.79 1.44 2.42 3 2.57a12.28 12.28 0 0 0 4.1-.17 1.89 1.89 0 0 0 1.6-1.68 1.12 1.12 0 0 0-.78-1.35 14.34 14.34 0 0 0-2.34-.6c-1.5-.26-3-.45-4.51-.68a4.17 4.17 0 0 1-.78-.25 3.35 3.35 0 0 1-2.44-2.87 3.84 3.84 0 0 1 1.71-3.91 8.23 8.23 0 0 1 4.59-1.13z"/></g></svg><svg viewBox="0 0 28.52 34.05" width="28.52" height="34.05" id="mongoIcon" x="186.14" y="92.50999999999999" xmlns="http://www.w3.org/2000/svg"><g data-name="Layer 2"><path d="M19.08 23.5q-2.1 1.3-4.21 2.6a1.45 1.45 0 0 1-1.63 0L9.1 23.52l-2.54-2.4a17 17 0 0 1-3.9-7.22 20.87 20.87 0 0 1-.2-9.27 4.11 4.11 0 0 1 2.72-3.15A21.57 21.57 0 0 1 12 .06a30.24 30.24 0 0 1 8 .5c.95.21 1.87.56 2.81.85 2.1.65 2.88 2.28 3.12 4.28a20 20 0 0 1-1.13 10.24 22.6 22.6 0 0 1-2.21 3.84 28 28 0 0 1-2.14 2.5zM3.83 8.51C4 9.88 4 11 4.2 12.08c1 5.7 4.57 9.41 9.44 12.08a.94.94 0 0 0 .77 0 17.88 17.88 0 0 0 8.45-8.5A16.28 16.28 0 0 0 24.1 7c-.39-3.35-.33-3.33-3.57-4.34a24.49 24.49 0 0 0-8.9-.66 14.12 14.12 0 0 0-6.24 1.53 2.06 2.06 0 0 0-.94 1.16C4.15 6 4 7.4 3.83 8.51zM24.8 32.3c.87-.76.86-3.73.05-4.33a16.68 16.68 0 0 1 2.66 0c.8.13.87.93.22 1.82a1.15 1.15 0 0 1 .7 1.53 1.5 1.5 0 0 1-1.5.94c-.65.06-1.29.04-2.13.04zm1.13-1.56c.19.67.08 1.27.91 1.25a.86.86 0 0 0 .95-.92 1 1 0 0 0-1.16-1c-.26.05-.47.44-.7.67zm1.07-1c.08-.1.44-.36.48-.66.06-.51-.33-.8-.85-.84s-.52.39-.54.76-.01.81.91.71zM21.25 28.05c0 1.05-.1 2.11-.08 3.16 0 .76.8 1 1.58.61a2.07 2.07 0 0 0 .08-3.3l-.56-.47a1.75 1.75 0 0 1 2.07 1.82 2.21 2.21 0 0 1-2 2.4c-.74.07-1.5 0-2.27 0 .74-1.2.33-2.48.36-3.7.02-.71.05-.8.82-.52zM13.27 32.21c-.26-.18-.19-.49.33-.73-.56-.38-.85-.84-.55-1.43a1.3 1.3 0 0 1 1.53-.67l1.16.22c-.54.76-.62 2-2 1.95l.12.24c.41.06.82.11 1.22.18.69.12 1 .77.54 1.27a3 3 0 0 1-1.52.8 1.38 1.38 0 0 1-1.1-.56c-.17-.2.12-.7.27-1.27zm1-.07c-.38.4-.8.63-.83.9 0 .53.46.63.91.65s1-.14.91-.63c-.06-.29-.57-.53-1.02-.92zm.73-1.73l-.9-.82c-.19.22-.51.43-.55.68a.68.68 0 0 0 .68.87c.2-.01.4-.38.77-.73zM12.35 32.26h-1a13.7 13.7 0 0 0 0-1.92c0-.19-.42-.45-.67-.48s-.51.37-.49.55c0 .6-.34 1.3.47 1.83h-1.5c.5-.6.63-2.17-.14-2.62a11.77 11.77 0 0 1 2.12-.28c.3 0 .67.43.84.76s0 .7.08 1a10.35 10.35 0 0 0 .29 1.16zM8.53 30.76A1.48 1.48 0 0 1 7 32.34a1.43 1.43 0 0 1-1.46-1.54 1.56 1.56 0 0 1 1.6-1.47 1.33 1.33 0 0 1 1.39 1.43zm-2.31-.21c0 .94.41 1.53 1 1.49s.71-.54.72-1c0-.79-.42-1.42-1-1.37s-.74.49-.72.88zM16.21 30.85a1.45 1.45 0 0 1 1.56-1.53 1.36 1.36 0 0 1 1.37 1.47 1.49 1.49 0 0 1-1.55 1.56 1.32 1.32 0 0 1-1.38-1.5zm2.29.2c0-.86-.42-1.48-1-1.41s-.7.46-.69 1c0 .86.41 1.49 1 1.43s.72-.56.69-1.02zM2.92 29.86a2.57 2.57 0 0 0 .19 2.39H2a14.34 14.34 0 0 0 .18-1.68c0-.65-.33-1-1-.8a.57.57 0 0 1 0-.13c.58-.64 1.12-.22 1.68.05z"/><path d="M2.92 29.86l-.13-.13c.43-.09 1-.37 1.28-.23s.4.73.52 1.14-.32 1.17.63 1.6H3.87A14.79 14.79 0 0 0 4 30.36c-.09-.61-.59-.62-1.08-.5zM1.11 29.68a.57.57 0 0 0 0 .13 2.14 2.14 0 0 0 .12 2.42H0a9.26 9.26 0 0 0 .2-1.3 10.41 10.41 0 0 0-.2-1.44zM18.33 14a8.83 8.83 0 0 1-2.8 5.5l-.78.71-.48-.31-.16-1.68v-1l.15-2.42v-1.36c.45.58.91.8 1.57.23.16-.15.59-.06.88 0 .56.05 1.08.2 1.62.33z"/><path d="M18.33 14c-.54-.13-1.06-.28-1.6-.38-.29-.06-.72-.15-.88 0-.66.57-1.12.35-1.57-.23V9.01a1.66 1.66 0 0 1 .13.35c.15.92.32 1 1.24.85l1.47-.31.63.56.17-.58a8.38 8.38 0 0 1 .41 4.12zM12.42 19a8.9 8.9 0 0 1-2.26-9.1l.18.92c.24.8.47 1.6.71 2.4.16.52.35 1 .47 1.55a11.3 11.3 0 0 0 .6 2.58 2.73 2.73 0 0 1 .3 1.65zM14.26 14.75l-.15 2.42a6.45 6.45 0 0 1-.31-.58C12.9 14.3 12 12 11.13 9.71c-.17-.44-.33-.88-.49-1.31.18-.41.37-.81.56-1.22.31.63.65 1.26.93 1.9.58 1.33 1.12 2.67 1.68 4a3.6 3.6 0 0 0 0 .87 3.81 3.81 0 0 0 .45.8z"/><path d="M10.64 8.4c.16.43.32.87.49 1.31C12 12 12.9 14.3 13.8 16.59a6.45 6.45 0 0 0 .31.58v1a1.1 1.1 0 0 1-1.09-1 3.59 3.59 0 0 0-.37-1 13.13 13.13 0 0 1-1.28-4.32 1.16 1.16 0 0 0-1-1.07l-.18-.92zM17.91 9.88l-.17.58-.63-.56-1.47.31c-.92.19-1.09.07-1.24-.85a1.66 1.66 0 0 0-.13-.36V7.65c.27-.06.61-.25.79-.14.68.39 1.16.1 1.64-.34z"/><path d="M10.34 10.82a1.16 1.16 0 0 1 1 1.07 13.13 13.13 0 0 0 1.28 4.32 3.59 3.59 0 0 1 .37 1 1.1 1.1 0 0 0 1.09 1c.05.56.11 1.12.16 1.68l-.19.48L12.42 19a2.73 2.73 0 0 0-.3-1.68 11.3 11.3 0 0 1-.6-2.58c-.12-.53-.31-1-.47-1.55-.24-.77-.47-1.57-.71-2.37zM14.27 7.65V14.74a3.81 3.81 0 0 1-.43-.79 3.6 3.6 0 0 1 0-.87A7.38 7.38 0 0 0 13 9.32c-.46-.94-.8-1.95-1.19-2.92l.75-1.2.58.62-.27.44L14 10h.13V6.59z"/><path d="M14.27 7.65l-.15-1.06V3.7l2.58 3.47c-.48.44-1 .73-1.64.34-.18-.11-.52.08-.79.14z"/><path d="M14.13 3.7V10H14l-1.1-3.69.27-.44-.58-.62L14 3.58a.09.09 0 0 1 .07 0 .47.47 0 0 1 .06.12zM11.83 6.4c.39 1 .73 2 1.19 2.92a7.38 7.38 0 0 1 .79 3.77c-.56-1.34-1.1-2.68-1.68-4-.28-.64-.62-1.27-.93-1.9zM14.08 20.38l.19-.48.48.31-.3 2.17c-.54-.07-.7-.88-.37-2z"/></g></svg><svg viewBox="0 0 63.99 22.77" width="63.99" height="22.77" id="nodeIcon" xmlns="http://www.w3.org/2000/svg"><g data-name="Layer 2"><path d="M42.63 9.4v-.91V.83c0-.92.17-1 1-.57s1.75 1 2.64 1.46A1.14 1.14 0 0 1 47 2.83v15.74a1.17 1.17 0 0 1-.66 1.13c-1.73 1-3.44 2-5.18 2.95a1.4 1.4 0 0 1-1.15 0c-1.75-.94-3.46-2-5.19-2.95a1.11 1.11 0 0 1-.63-1.07v-6a1.11 1.11 0 0 1 .63-1.07q2.55-1.43 5-2.92a1.2 1.2 0 0 1 1.48 0 14.17 14.17 0 0 0 1.33.76zm.08 6.24c-.07-.45 0-1.06-.22-1.27a3.48 3.48 0 0 0-1.93-1 3.92 3.92 0 0 0-1.94 1c-.19.13-.19.59-.18.9 0 .57-.11 1.32.2 1.66a3 3 0 0 0 1.91 1 3.48 3.48 0 0 0 1.93-1.05c.25-.21.16-.81.23-1.24zM29.87 15.52v3a1 1 0 0 1-.53 1c-1.77 1-3.52 2-5.31 3a1.38 1.38 0 0 1-1.09 0q-2.67-1.47-5.28-3.06a1.26 1.26 0 0 1-.54-.88q-.07-3.09 0-6.18a1.34 1.34 0 0 1 .57-.93c1.72-1.05 3.48-2 5.22-3a1 1 0 0 1 1.17 0c1.74 1 3.5 2 5.22 3a1.38 1.38 0 0 1 .54.94c.07 1.05.03 2.08.03 3.11zM0 16.55v-4.08a1.1 1.1 0 0 1 .61-1.08c1.74-1 3.47-2 5.18-3A1.12 1.12 0 0 1 7 8.42c1.7 1 3.4 2 5.12 2.95a1.18 1.18 0 0 1 .66 1.19v8c0 .87-.19 1-.93.55s-1.74-1-2.63-1.49a1.24 1.24 0 0 1-.73-1.3v-3.37a1 1 0 0 0-.59-1l-.24-.14a2.16 2.16 0 0 0-3.1.35 1.19 1.19 0 0 0-.28.81v3.45a1.17 1.17 0 0 1-.68 1.19c-.91.48-1.79 1-2.69 1.52-.74.42-.9.33-.9-.5v-4zM51.21 15.49c0-1-.05-2 0-3a1.34 1.34 0 0 1 .54-.94c1.72-1 3.48-2 5.21-3a1 1 0 0 1 1.18 0c1.73 1 3.49 2 5.21 3a1.62 1.62 0 0 1 .55 1 2.09 2.09 0 0 1-1.44 2.63 18.06 18.06 0 0 0-2.14 1.21c-.42.25-.75.14-.66-.36.27-1.4-.46-2.09-1.62-2.59a.93.93 0 0 0-1.09 0 1 1 0 0 1-.24.14 1.93 1.93 0 0 0-1.37 2.31 1.48 1.48 0 0 0 .83 1.37c1.61.86 3.18 1.8 4.76 2.71.72.41.72.61 0 1-.94.53-1.86 1.08-2.83 1.55a1.44 1.44 0 0 1-1.1 0q-2.66-1.43-5.24-3a1.31 1.31 0 0 1-.53-.94c-.07-1.03-.02-2.06-.02-3.09z"/><path d="M56.31 15.42a1.56 1.56 0 0 1 1.27-1.29 1.49 1.49 0 0 1 1.22 1.48 1.54 1.54 0 0 1-1.23 1.26 1.53 1.53 0 0 1-1.26-1.45z"/></g></svg><svg viewBox="0 0 33.21 33.86" width="33.21" height="33.86" id="postCssIcon" y="144.18" xmlns="http://www.w3.org/2000/svg"><g data-name="Layer 2"><path d="M16.75 33.86a7.75 7.75 0 0 0-1.22-.3 15.78 15.78 0 0 1-8.78-3.34 15.85 15.85 0 0 1-1.9-1.55 7 7 0 0 1-1.23-1.94l.43.37.11-.1-.76-1.31c.81.77 1.53 1.45 2.24 2.14a14.45 14.45 0 0 0 4.14 2.73 14.5 14.5 0 0 0 2.52 1.06 19.4 19.4 0 0 0 4.38.69 15.56 15.56 0 0 0 10.71-4.4c1.18-1.08 1.76-2.49 2.72-3.92-9.65.2-19.09 1.26-28.55.53l-.05-.27a2.33 2.33 0 0 1 .65-.25C4.1 23.94 6 23.89 8 23.84c1.44 0 1.32.19 1.33-1.35a.74.74 0 0 1 .08-.4l.11.71V10.87l-3 3.68-.26-.19c2.69-4.49 5.92-8.61 9-13a11.76 11.76 0 0 0-5.15 1 14.17 14.17 0 0 0-6.27 5.33 19.5 19.5 0 0 0-2.68 5.71c-.11.44-.16.89-.25 1.34a13.29 13.29 0 0 1-.47 1.83 5.73 5.73 0 0 1-.27-3.66A16.58 16.58 0 0 1 8.45 1.79 14.49 14.49 0 0 1 13.88.32C14.59.23 15.29.11 16 0h.6c.46.05.92.08 1.38.16 1.54.25 3.1.39 4.6.79 4.51 1.21 7.52 4.22 9.47 8.43a16.25 16.25 0 0 1 1.11 7.8 25.57 25.57 0 0 1-.77 4.67 2 2 0 0 0 .27 2v.21c-1.07.13-1.08.12-1.6 1.16a14.22 14.22 0 0 1-8 7.1 3.22 3.22 0 0 0-1 .42 3.38 3.38 0 0 1-2.28.55c-.72 0-1.55-.2-2.1.55zm7.43-24.15a7.69 7.69 0 0 0 .49 2.2c.93 1.61 2 3.13 3 4.68s2.13 3.2 3.2 4.8h.18v-.47a3.93 3.93 0 0 1 .06-.69 8.83 8.83 0 0 0 .36-1.1 36.52 36.52 0 0 0 .15-4.31 17.78 17.78 0 0 0-.68-4 5.64 5.64 0 0 0-.7-1.9c-1.84-2.75-3.86-5.29-7.2-6.36a23 23 0 0 0-6-1.13c.14.21.2.31.27.4C19 4 20.62 6.19 22.22 8.44c.52.75.96 1.56 1.96 1.27zm-13 10.2l.27-.11c.27.55.42 1.27.85 1.62a5.66 5.66 0 0 0 3.15 1.47c2.45.16 4.4-.4 5.41-2.58a16.65 16.65 0 0 0 .88-3.24 3.55 3.55 0 0 0-1.37-3.6 11.68 11.68 0 0 0-1.54-1.06 2.94 2.94 0 0 0-2.51-.33 12.25 12.25 0 0 0-2.46 1.08 6.63 6.63 0 0 0-3 4.7c-.35 1.91 0 3.95.05 5.9h3.44a14.12 14.12 0 0 1-2-1.68c-.55-.61-1.35-1.2-1.2-2.17zM21.55 9.69l-5.49-7.93L10 10.25zm2.85 4.41v.62c0 1.87.14 3.74.15 5.62a15.15 15.15 0 0 1-.26 2.12c-.08.64 0 1 .81 1 1.74-.09 3.48-.1 5.22-.14a1.27 1.27 0 0 0 .33-.12zm-1.49 1.33c0-1.24.05-2.35 0-3.45 0-.31-.37-.82-.6-.84-1.05-.09-2.12 0-3.18 0v.26a6.14 6.14 0 0 1 3.78 4.03zm-.11 4.34a8.79 8.79 0 0 1-3.37 3.67h3.64zm-12-8.21v3.07l-.23-.28 3-3z"/><path d="M1.16 19.59a1.63 1.63 0 0 1-.4-2.15c.57.63.34 1.41.4 2.15z"/></g></svg><svg viewBox="0 0 60.17 58.53" width="60.17" height="58.53" id="psIcon" x="125.97" xmlns="http://www.w3.org/2000/svg"><g data-name="Layer 2"><path d="M0 58.53V0H60.17v58.53zm18-27.39h.76a19.31 19.31 0 0 0 3.8-.13 12 12 0 0 0 4-1.21 8.37 8.37 0 0 0 4.39-5.3 11.86 11.86 0 0 0 .06-6.2A7.8 7.8 0 0 0 26 12.68a12.53 12.53 0 0 0-4.36-.86c-2.19-.07-4.39 0-6.59.06-.47 0-.94 0-1.41.07s-.53.16-.52.58v29.12c0 .22.08.29.31.3h4c.51 0 .53 0 .53-.54V31.14zm16 7.7v2a.44.44 0 0 0 .27.46 7.34 7.34 0 0 0 1.36.56 14 14 0 0 0 5.76.47 8.52 8.52 0 0 0 3.11-1 5.88 5.88 0 0 0 2.82-3.39 7.51 7.51 0 0 0 .29-3.06 5.7 5.7 0 0 0-1.19-3 8.2 8.2 0 0 0-1.54-1.46 18.51 18.51 0 0 0-2.6-1.57c-.71-.36-1.4-.76-2.09-1.16a4.39 4.39 0 0 1-1.11-.91 1.77 1.77 0 0 1 .21-2.57 2.89 2.89 0 0 1 1.59-.61 7.59 7.59 0 0 1 2 .05 8.74 8.74 0 0 1 3.25 1.05c.38.22.55.12.55-.32v-3-.63a.59.59 0 0 0-.43-.62c-.31-.1-.61-.21-.92-.29a15.6 15.6 0 0 0-4.25-.4 8.7 8.7 0 0 0-3 .61 6.46 6.46 0 0 0-2.83 2.06 6.36 6.36 0 0 0-1 5.73 5.85 5.85 0 0 0 2.1 3 15.47 15.47 0 0 0 2.88 1.77c.59.3 1.17.63 1.74 1a5.58 5.58 0 0 1 1.37 1.09 2 2 0 0 1 .52 1.68 1.89 1.89 0 0 1-1.26 1.52 4.71 4.71 0 0 1-1.7.29 9.88 9.88 0 0 1-4.18-.86c-.47-.21-.91-.48-1.37-.73-.25-.13-.34-.09-.35.21v2z"/><path d="M18 26.78V16.25h.14c1 0 2-.06 3 0a6.5 6.5 0 0 1 2.3.46 4.28 4.28 0 0 1 2.73 3.1 7 7 0 0 1-.08 3.68 4.36 4.36 0 0 1-2.93 3 8.44 8.44 0 0 1-2.73.44h-2.12a2.21 2.21 0 0 1-.31-.15z"/></g></svg><svg viewBox="0 0 52.16 58.93" width="52.16" height="58.93" id="sqlIcon" x="52.26" y="85.14" xmlns="http://www.w3.org/2000/svg"><g data-name="Layer 2"><path d="M45.66 58.93H6.5c-1.43-.55-1.82-1.64-1.8-3.09.06-3.46 0-6.93 0-10.4v-.58H3.43A3.28 3.28 0 0 1 0 41.45v-17a3.62 3.62 0 0 1 .39-1.62 3.12 3.12 0 0 1 3-1.76h1.32V2.62A2.41 2.41 0 0 1 5.4.69 8.17 8.17 0 0 1 6.5 0h28.81a6.57 6.57 0 0 1 .62.55c.66.73 1.31 1.47 2 2.21q4.43 5.12 8.9 10.24a2.22 2.22 0 0 1 .62 1.61v6.53h1.22a5.34 5.34 0 0 1 1.2.17 3.26 3.26 0 0 1 2.27 3.31v16.74a4.89 4.89 0 0 1 0 .66 3.2 3.2 0 0 1-2.91 2.79h-1.76V56.3a2.42 2.42 0 0 1-.69 1.93 8.17 8.17 0 0 1-1.12.7zM33.79 2.31H7.52c-.41 0-.53.11-.53.53Q7 11.7 7 20.57v.48h38.17v-5.16c0-.62 0-.62-.61-.63h-9.32c-1.06 0-1.44-.39-1.44-1.44V2.95zM7 44.89v10.56c0 .43.11.56.55.55h37.08c.43 0 .56-.12.56-.56V44.9zm23.46-5.32a1.18 1.18 0 0 1 .1-.18l.11-.08a7.32 7.32 0 0 0 3.6-5.31 10.91 10.91 0 0 0 .1-3.65A8.05 8.05 0 0 0 31 24.52a8.2 8.2 0 0 0-5.37-1.3 7.9 7.9 0 0 0-7.12 5.64 11.78 11.78 0 0 0-.34 5.14A7.78 7.78 0 0 0 25 40.79a10.59 10.59 0 0 1 1.78.36c1.26.43 2.49 1 3.74 1.4 1 .35 1.95.64 3 1l1.1-3zm-26 .26c.65.21 1.28.46 1.92.62a10.78 10.78 0 0 0 6.48-.23 4.78 4.78 0 0 0 3.28-3.84 4.68 4.68 0 0 0-2.76-5.24c-1.22-.6-2.48-1.11-3.71-1.68A1.46 1.46 0 0 1 9 27.05a2 2 0 0 1 1.1-.57 11.35 11.35 0 0 1 2.47 0 14.29 14.29 0 0 1 2.1.57c.24-.86.46-1.74.73-2.6.12-.38 0-.52-.34-.65a11.52 11.52 0 0 0-4.62-.61 6.61 6.61 0 0 0-4.67 2.11 4.63 4.63 0 0 0-.14 5.7 7.67 7.67 0 0 0 3 2c.8.33 1.6.64 2.38 1a1.82 1.82 0 0 1 1.21 2c-.09.82-.56 1.32-1.58 1.55a7.82 7.82 0 0 1-4.2-.43c-.4-.13-.78-.3-1.21-.47zm36.47-2.53v-.68-12.66c0-.42-.11-.54-.53-.53h-2.87c-.4 0-.53.09-.53.52v16.09c0 .46.15.54.56.54h9.74c.14 0 .4-.14.4-.23v-3z"/><path d="M30.38 32a7.66 7.66 0 0 1-1 4 3.6 3.6 0 0 1-6.3 0 7.57 7.57 0 0 1-.92-4.57 7 7 0 0 1 .8-3 3.64 3.64 0 0 1 3.16-2.1 3.55 3.55 0 0 1 3.34 1.95 7.35 7.35 0 0 1 .92 3.72z"/></g></svg></svg>