<svg xmlns="http://www.w3.org/2000/svg" viewBox="0 0 25.57 15.42"><title>awsIcon</title><g id="Layer_2" data-name="Layer 2"><g id="icons"><path d="M17.78,11.94c-.38,1.6-.77,3.21-1.15,4.81-.12.47-.18.89-.87.88a1,1,0,0,1-1.12-.82c-.64-2.24-1.33-4.46-2-6.69,1.33-.32,1.46-.24,1.75.92a40.21,40.21,0,0,0,1.39,4.69c.38-1.59.77-3.17,1.13-4.76.13-.57.21-1,1-1s.82.5.94,1a41.82,41.82,0,0,0,1.34,4.82c.2-.71.4-1.41.59-2.12A25.42,25.42,0,0,0,21.46,11c.16-1,.69-1.19,1.62-.93a2.68,2.68,0,0,1-.07.56c-.64,2.09-1.31,4.17-1.92,6.27-.18.63-.52.73-1.09.74s-.75-.28-.86-.77c-.37-1.64-.78-3.27-1.18-4.91Z" transform="translate(-4.81 -9.78)"/><path d="M28.06,21.66a15.33,15.33,0,0,1-9.32,3.5A18.19,18.19,0,0,1,4.81,20.27a28.51,28.51,0,0,0,11.48,3.26A30.17,30.17,0,0,0,28.06,21.66Z" transform="translate(-4.81 -9.78)"/><path d="M10.32,13.18c.34-1.55-.36-2.42-2-2.25a20.61,20.61,0,0,0-2.15.46c-.23-.56-.16-1.06.42-1.16a13.24,13.24,0,0,1,3.3-.32,2,2,0,0,1,1.83,2.16c0,1,0,2,0,3a3.54,3.54,0,0,0,.25,1.3c.22.49.21.8-.29,1.09s-.8-.06-1-.45L10.64,17A13.43,13.43,0,0,1,8,17.76a2.06,2.06,0,0,1-2.41-2A2.34,2.34,0,0,1,7.66,13.2,23.55,23.55,0,0,1,10.32,13.18Zm-1.47.9a6,6,0,0,0-.78.13,1.24,1.24,0,0,0-1,1.62,1.11,1.11,0,0,0,1.42.87,2.32,2.32,0,0,0,1.33-.58,3.2,3.2,0,0,0,.48-1.61c0-.09-.67-.27-1-.39A3.34,3.34,0,0,0,8.85,14.08Z" transform="translate(-4.81 -9.78)"/><path d="M28.93,11.22a19.91,19.91,0,0,0-2.32-.33c-.59,0-1.23.16-1.32.92s.5.95,1,1.15,1.13.36,1.69.55a2,2,0,0,1,1.45,1.92,2.11,2.11,0,0,1-1.31,2,4.56,4.56,0,0,1-3.87-.07c-.29-.13-.39-.67-.68-1.21,1,.22,1.75.42,2.48.51a2.13,2.13,0,0,0,1.2-.17,1.37,1.37,0,0,0,.73-.87,1.34,1.34,0,0,0-.63-.93,8.22,8.22,0,0,0-1.58-.56c-1.35-.44-2.06-1.33-1.93-2.41a2.45,2.45,0,0,1,2.58-2,10.43,10.43,0,0,1,1.76.2A.84.84,0,0,1,28.93,11.22Z" transform="translate(-4.81 -9.78)"/><path d="M25.85,20.38a5.36,5.36,0,0,1,4.09-.65c.18,0,.43.42.43.65A4.45,4.45,0,0,1,28.67,24c.23-.72.5-1.43.68-2.15.27-1.06,0-1.44-1.11-1.46Z" transform="translate(-4.81 -9.78)"/></g></g></svg>