<svg xmlns="http://www.w3.org/2000/svg" viewBox="0 0 35.2 34.28"><defs><style>.cls-1{fill:#fff;}</style></defs><title>idIcon</title><g id="Layer_2" data-name="Layer 2"><g id="icons"><path d="M35.2,34.28H0V0H35.2Zm-8-8.12V7.81H23.11v6.62a11.1,11.1,0,0,0-1.59-.89,5.6,5.6,0,0,0-6.29,1.79A8,8,0,0,0,15,24.15a5.2,5.2,0,0,0,7.68,1.15c.27-.24.51-.52.81-.83l.23,1.69ZM8,26.16h4V8.75H8Z"/><path class="cls-1" d="M27.18,26.16H23.71l-.23-1.69c-.3.31-.54.59-.81.83A5.2,5.2,0,0,1,15,24.15a8,8,0,0,1,.24-8.82,5.6,5.6,0,0,1,6.29-1.79,11.1,11.1,0,0,1,1.59.89V7.81h4.07Zm-4-6.48c0-.35,0-.79-.08-1.21a2.39,2.39,0,0,0-1.94-2.18,2.52,2.52,0,0,0-2.84,1.62,5,5,0,0,0-.19,3.27,2.53,2.53,0,0,0,2.78,2.13c1.22-.07,2-.92,2.21-2.42C23.15,20.52,23.14,20.13,23.16,19.68Z"/><path class="cls-1" d="M8,26.16V8.75h4V26.16Z"/><path d="M23.16,19.68c0,.45,0,.84-.06,1.21-.2,1.5-1,2.35-2.21,2.42a2.53,2.53,0,0,1-2.78-2.13,5,5,0,0,1,.19-3.27,2.52,2.52,0,0,1,2.84-1.62,2.39,2.39,0,0,1,1.94,2.18C23.14,18.89,23.14,19.33,23.16,19.68Z"/></g></g></svg>