<svg xmlns="http://www.w3.org/2000/svg" viewBox="0 0 29.4 33.17"><title>jsIcon</title><g id="Layer_2" data-name="Layer 2"><g id="icons"><path d="M14.3,33.17a50.37,50.37,0,0,1-5.31-3L9,30a4.63,4.63,0,0,0,1.14-.47,1.66,1.66,0,0,1,2.25.13c.58.44,1.25.75,1.87,1.14a.71.71,0,0,0,.81,0L26.82,24a.71.71,0,0,0,.4-.71q0-6.73,0-13.46a.78.78,0,0,0-.42-.75Q20.94,5.74,15.1,2.35a.74.74,0,0,0-.81,0Q8.46,5.74,2.6,9.11a.76.76,0,0,0-.43.74q0,6.74,0,13.46a.74.74,0,0,0,.41.71c1,.57,2,1.19,3,1.73a3.55,3.55,0,0,0,1.43.39,1.48,1.48,0,0,0,1.54-1.53c0-.88,0-1.75,0-2.63V11.19c0-.74.05-.78.81-.78.31,0,.61,0,.92,0s.56.18.56.56v.24q0,6.53,0,13a7.65,7.65,0,0,1-.2,1.78A3.2,3.2,0,0,1,7.45,28.4a5.85,5.85,0,0,1-3.14-.86c-1-.55-2-1.13-2.95-1.7A2.59,2.59,0,0,1,0,23.43q0-6.84,0-13.7A2.64,2.64,0,0,1,1.42,7.26L13.29.41A2.64,2.64,0,0,1,16.1.4L28,7.28a2.56,2.56,0,0,1,1.39,2.34q0,7,0,13.9A2.56,2.56,0,0,1,28,25.86L16,32.78a7.61,7.61,0,0,1-.93.39Z"/><path d="M18.45,9.46a11,11,0,0,1,4,.68,4.48,4.48,0,0,1,2.77,4c0,.38-.15.55-.51.56-.51,0-1,0-1.55,0-.17,0-.44-.17-.47-.31-.4-1.9-1.77-2.43-3.46-2.46a20.29,20.29,0,0,0-2.7.17,2.62,2.62,0,0,0-1,.43,1.5,1.5,0,0,0-.61,1.54c.07.57.5.79,1,.9.83.21,1.68.37,2.52.52l3.92.66a5,5,0,0,1,.66.19,3.42,3.42,0,0,1,2.79,3,4.09,4.09,0,0,1-1.94,4.16,8.38,8.38,0,0,1-4.32,1.1,11.31,11.31,0,0,1-5.14-.81,4.34,4.34,0,0,1-2.66-3.92c0-.59.09-.71.69-.72a12.34,12.34,0,0,1,1.36,0c.18,0,.48.23.5.38.25,1.79,1.44,2.42,3,2.57a12.28,12.28,0,0,0,4.1-.17A1.89,1.89,0,0,0,23,20.25a1.12,1.12,0,0,0-.78-1.35,14.34,14.34,0,0,0-2.34-.6c-1.5-.26-3-.45-4.51-.68a4.17,4.17,0,0,1-.78-.25,3.35,3.35,0,0,1-2.44-2.87,3.84,3.84,0,0,1,1.71-3.91A8.23,8.23,0,0,1,18.45,9.46Z"/></g></g></svg>