<svg xmlns="http://www.w3.org/2000/svg" viewBox="0 0 28.52 34.05"><title>mongoIcon</title><g id="Layer_2" data-name="Layer 2"><g id="icons"><path d="M19.08,23.5q-2.1,1.3-4.21,2.6a1.45,1.45,0,0,1-1.63,0L9.1,23.52l-2.54-2.4a17,17,0,0,1-3.9-7.22,20.87,20.87,0,0,1-.2-9.27A4.11,4.11,0,0,1,5.18,1.48,21.57,21.57,0,0,1,12,.06a30.24,30.24,0,0,1,8,.5c.95.21,1.87.56,2.81.85,2.1.65,2.88,2.28,3.12,4.28A20,20,0,0,1,24.8,15.93a22.6,22.6,0,0,1-2.21,3.84,28,28,0,0,1-2.14,2.5ZM3.83,8.51C4,9.88,4,11,4.2,12.08c1,5.7,4.57,9.41,9.44,12.08a.94.94,0,0,0,.77,0,17.88,17.88,0,0,0,8.45-8.5A16.28,16.28,0,0,0,24.1,7c-.39-3.35-.33-3.33-3.57-4.34A24.49,24.49,0,0,0,11.63,2,14.12,14.12,0,0,0,5.39,3.53a2.06,2.06,0,0,0-.94,1.16C4.15,6,4,7.4,3.83,8.51Z"/><path d="M24.8,32.3c.87-.76.86-3.73.05-4.33a16.68,16.68,0,0,1,2.66,0c.8.13.87.93.22,1.82a1.15,1.15,0,0,1,.7,1.53,1.5,1.5,0,0,1-1.5.94C26.28,32.32,25.64,32.3,24.8,32.3Zm1.13-1.56c.19.67.08,1.27.91,1.25a.86.86,0,0,0,.95-.92,1,1,0,0,0-1.16-1C26.37,30.12,26.16,30.51,25.93,30.74Zm1.07-1c.08-.1.44-.36.48-.66.06-.51-.33-.8-.85-.84s-.52.39-.54.76S26.08,29.81,27,29.71Z"/><path d="M21.25,28.05c0,1.05-.1,2.11-.08,3.16,0,.76.8,1,1.58.61a2.07,2.07,0,0,0,.08-3.3l-.56-.47a1.75,1.75,0,0,1,2.07,1.82,2.21,2.21,0,0,1-2,2.4c-.74.07-1.5,0-2.27,0,.74-1.2.33-2.48.36-3.7C20.45,27.86,20.48,27.77,21.25,28.05Z"/><path d="M13.27,32.21c-.26-.18-.19-.49.33-.73-.56-.38-.85-.84-.55-1.43a1.3,1.3,0,0,1,1.53-.67l1.16.22c-.54.76-.62,2-2,1.95l.12.24c.41.06.82.11,1.22.18.69.12,1,.77.54,1.27a3,3,0,0,1-1.52.8,1.38,1.38,0,0,1-1.1-.56C12.83,33.28,13.12,32.78,13.27,32.21Zm1-.07c-.38.4-.8.63-.83.9,0,.53.46.63.91.65s1-.14.91-.63C15.2,32.77,14.69,32.53,14.24,32.14ZM15,30.41l-.9-.82c-.19.22-.51.43-.55.68a.68.68,0,0,0,.68.87C14.43,31.13,14.63,30.76,15,30.41Z"/><path d="M12.35,32.26h-1a13.7,13.7,0,0,0,0-1.92c0-.19-.42-.45-.67-.48s-.51.37-.49.55c0,.6-.34,1.3.47,1.83H9.16c.5-.6.63-2.17-.14-2.62a11.77,11.77,0,0,1,2.12-.28c.3,0,.67.43.84.76s0,.7.08,1A10.35,10.35,0,0,0,12.35,32.26Z"/><path d="M8.53,30.76A1.48,1.48,0,0,1,7,32.34,1.43,1.43,0,0,1,5.54,30.8a1.56,1.56,0,0,1,1.6-1.47A1.33,1.33,0,0,1,8.53,30.76Zm-2.31-.21c0,.94.41,1.53,1,1.49s.71-.54.72-1c0-.79-.42-1.42-1-1.37S6.2,30.16,6.22,30.55Z"/><path d="M16.21,30.85a1.45,1.45,0,0,1,1.56-1.53,1.36,1.36,0,0,1,1.37,1.47,1.49,1.49,0,0,1-1.55,1.56A1.32,1.32,0,0,1,16.21,30.85Zm2.29.2c0-.86-.42-1.48-1-1.41s-.7.46-.69,1c0,.86.41,1.49,1,1.43S18.53,31.51,18.5,31.05Z"/><path d="M2.92,29.86a2.57,2.57,0,0,0,.19,2.39l-.68,0H2a14.34,14.34,0,0,0,.18-1.68c0-.65-.33-1-1-.8a.57.57,0,0,1,0-.13c.58-.64,1.12-.22,1.68.05Z"/><path d="M2.92,29.86l-.13-.13c.43-.09,1-.37,1.28-.23s.4.73.52,1.14-.32,1.17.63,1.6H3.87A14.79,14.79,0,0,0,4,30.36C3.91,29.75,3.41,29.74,2.92,29.86Z"/><path d="M1.11,29.68a.57.57,0,0,0,0,.13,2.14,2.14,0,0,0,.12,2.42H0a9.26,9.26,0,0,0,.2-1.3A10.41,10.41,0,0,0,0,29.49Z"/><path d="M18.33,14a8.83,8.83,0,0,1-2.8,5.5l-.78.71-.48-.31-.16-1.68v-1l.15-2.42c0-.45,0-.91,0-1.36.45.58.91.8,1.57.23.16-.15.59-.06.88,0C17.27,13.72,17.79,13.87,18.33,14Z"/><path d="M18.33,14c-.54-.13-1.06-.28-1.6-.38-.29-.06-.72-.15-.88,0-.66.57-1.12.35-1.57-.23,0-1.46,0-2.92,0-4.38a1.66,1.66,0,0,1,.13.35c.15.92.32,1,1.24.85l1.47-.31.63.56.17-.58A8.38,8.38,0,0,1,18.33,14Z"/><path d="M12.42,19A8.9,8.9,0,0,1,10.16,9.9l.18.92c.24.8.47,1.6.71,2.4.16.52.35,1,.47,1.55a11.3,11.3,0,0,0,.6,2.58A2.73,2.73,0,0,1,12.42,19Z"/><path d="M14.26,14.75l-.15,2.42a6.45,6.45,0,0,1-.31-.58C12.9,14.3,12,12,11.13,9.71c-.17-.44-.33-.88-.49-1.31.18-.41.37-.81.56-1.22.31.63.65,1.26.93,1.9.58,1.33,1.12,2.67,1.68,4a3.6,3.6,0,0,0,0,.87A3.81,3.81,0,0,0,14.26,14.75Z"/><path d="M10.64,8.4c.16.43.32.87.49,1.31C12,12,12.9,14.3,13.8,16.59a6.45,6.45,0,0,0,.31.58v1a1.1,1.1,0,0,1-1.09-1,3.59,3.59,0,0,0-.37-1,13.13,13.13,0,0,1-1.28-4.32,1.16,1.16,0,0,0-1-1.07l-.18-.92Z"/><path d="M17.91,9.88l-.17.58-.63-.56-1.47.31c-.92.19-1.09.07-1.24-.85A1.66,1.66,0,0,0,14.27,9V7.65c.27-.06.61-.25.79-.14.68.39,1.16.1,1.64-.34Z"/><path d="M10.34,10.82a1.16,1.16,0,0,1,1,1.07,13.13,13.13,0,0,0,1.28,4.32,3.59,3.59,0,0,1,.37,1,1.1,1.1,0,0,0,1.09,1c.05.56.11,1.12.16,1.68l-.19.48L12.42,19a2.73,2.73,0,0,0-.3-1.68,11.3,11.3,0,0,1-.6-2.58c-.12-.53-.31-1-.47-1.55C10.81,12.42,10.58,11.62,10.34,10.82Z"/><path d="M14.27,7.65V9c0,1.46,0,2.92,0,4.38,0,.45,0,.91,0,1.36a3.81,3.81,0,0,1-.43-.79,3.6,3.6,0,0,1,0-.87A7.38,7.38,0,0,0,13,9.32c-.46-.94-.8-1.95-1.19-2.92l.75-1.2.58.62-.27.44L14,10h.13V6.59Z"/><path d="M14.27,7.65l-.15-1.06c0-1,0-1.92,0-2.89L16.7,7.17c-.48.44-1,.73-1.64.34C14.88,7.4,14.54,7.59,14.27,7.65Z"/><path d="M14.13,3.7c0,1,0,1.93,0,2.89V10H14l-1.1-3.69.27-.44-.58-.62L14,3.58a.09.09,0,0,1,.07,0A.47.47,0,0,1,14.13,3.7Z"/><path d="M11.83,6.4c.39,1,.73,2,1.19,2.92a7.38,7.38,0,0,1,.79,3.77c-.56-1.34-1.1-2.68-1.68-4-.28-.64-.62-1.27-.93-1.9Z"/><path d="M14.08,20.38l.19-.48.48.31-.3,2.17C13.91,22.31,13.75,21.5,14.08,20.38Z"/></g></g></svg>