<svg xmlns="http://www.w3.org/2000/svg" viewBox="0 0 63.99 22.77"><title>nodeIcon</title><g id="Layer_2" data-name="Layer 2"><g id="icons"><path d="M42.63,9.4c0-.42,0-.67,0-.91,0-2.56,0-5.11,0-7.66,0-.92.17-1,1-.57s1.75,1,2.64,1.46A1.14,1.14,0,0,1,47,2.83q0,7.88,0,15.74a1.17,1.17,0,0,1-.66,1.13c-1.73,1-3.44,2-5.18,2.95a1.4,1.4,0,0,1-1.15,0c-1.75-.94-3.46-2-5.19-2.95a1.11,1.11,0,0,1-.63-1.07q0-3,0-6a1.11,1.11,0,0,1,.63-1.07q2.55-1.43,5-2.92a1.2,1.2,0,0,1,1.48,0A14.17,14.17,0,0,0,42.63,9.4Zm.08,6.24c-.07-.45,0-1.06-.22-1.27a3.48,3.48,0,0,0-1.93-1,3.92,3.92,0,0,0-1.94,1c-.19.13-.19.59-.18.9,0,.57-.11,1.32.2,1.66a3,3,0,0,0,1.91,1,3.48,3.48,0,0,0,1.93-1.05C42.73,16.67,42.64,16.07,42.71,15.64Z"/><path d="M29.87,15.52c0,1,0,2,0,3a1,1,0,0,1-.53,1c-1.77,1-3.52,2-5.31,3a1.38,1.38,0,0,1-1.09,0q-2.67-1.47-5.28-3.06a1.26,1.26,0,0,1-.54-.88q-.07-3.09,0-6.18a1.34,1.34,0,0,1,.57-.93c1.72-1.05,3.48-2,5.22-3a1,1,0,0,1,1.17,0c1.74,1,3.5,2,5.22,3a1.38,1.38,0,0,1,.54.94C29.91,13.46,29.87,14.49,29.87,15.52Z"/><path d="M0,16.55c0-1.36,0-2.72,0-4.08a1.1,1.1,0,0,1,.61-1.08c1.74-1,3.47-2,5.18-3A1.12,1.12,0,0,1,7,8.42c1.7,1,3.4,2,5.12,2.95a1.18,1.18,0,0,1,.66,1.19c0,2.65,0,5.3,0,8,0,.87-.19,1-.93.55s-1.74-1-2.63-1.49a1.24,1.24,0,0,1-.73-1.3c0-1.12,0-2.25,0-3.37a1,1,0,0,0-.59-1l-.24-.14a2.16,2.16,0,0,0-3.1.35,1.19,1.19,0,0,0-.28.81c0,1.15,0,2.3,0,3.45a1.17,1.17,0,0,1-.68,1.19c-.91.48-1.79,1-2.69,1.52-.74.42-.9.33-.9-.5,0-1.34,0-2.67,0-4Z"/><path d="M51.21,15.49c0-1-.05-2,0-3a1.34,1.34,0,0,1,.54-.94c1.72-1,3.48-2,5.21-3a1,1,0,0,1,1.18,0c1.73,1,3.49,2,5.21,3a1.62,1.62,0,0,1,.55,1,2.09,2.09,0,0,1-1.44,2.63,18.06,18.06,0,0,0-2.14,1.21c-.42.25-.75.14-.66-.36.27-1.4-.46-2.09-1.62-2.59a.93.93,0,0,0-1.09,0,1,1,0,0,1-.24.14,1.93,1.93,0,0,0-1.37,2.31,1.48,1.48,0,0,0,.83,1.37c1.61.86,3.18,1.8,4.76,2.71.72.41.72.61,0,1-.94.53-1.86,1.08-2.83,1.55a1.44,1.44,0,0,1-1.1,0q-2.66-1.43-5.24-3a1.31,1.31,0,0,1-.53-.94C51.16,17.55,51.21,16.52,51.21,15.49Z"/><path d="M56.31,15.42a1.56,1.56,0,0,1,1.27-1.29,1.49,1.49,0,0,1,1.22,1.48,1.54,1.54,0,0,1-1.23,1.26A1.53,1.53,0,0,1,56.31,15.42Z"/></g></g></svg>