<svg xmlns="http://www.w3.org/2000/svg" viewBox="0 0 33.21 33.86"><title>Asset 2</title><g id="Layer_2" data-name="Layer 2"><g id="icons"><path d="M16.75,33.86a7.75,7.75,0,0,0-1.22-.3,15.78,15.78,0,0,1-8.78-3.34,15.85,15.85,0,0,1-1.9-1.55,7,7,0,0,1-1.23-1.94l.43.37L4.16,27,3.4,25.69c.81.77,1.53,1.45,2.24,2.14a14.45,14.45,0,0,0,4.14,2.73,14.5,14.5,0,0,0,2.52,1.06,19.4,19.4,0,0,0,4.38.69,15.56,15.56,0,0,0,10.71-4.4c1.18-1.08,1.76-2.49,2.72-3.92-9.65.2-19.09,1.26-28.55.53l-.05-.27A2.33,2.33,0,0,1,2.16,24C4.1,23.94,6,23.89,8,23.84c1.44,0,1.32.19,1.33-1.35a.74.74,0,0,1,.08-.4l.11.71h0V10.87l-3,3.68-.26-.19c2.69-4.49,5.92-8.61,9-13a11.76,11.76,0,0,0-5.15,1A14.17,14.17,0,0,0,3.84,7.69,19.5,19.5,0,0,0,1.16,13.4c-.11.44-.16.89-.25,1.34a13.29,13.29,0,0,1-.47,1.83,5.73,5.73,0,0,1-.27-3.66A16.58,16.58,0,0,1,8.45,1.79,14.49,14.49,0,0,1,13.88.32C14.59.23,15.29.11,16,0h.6c.46.05.92.08,1.38.16,1.54.25,3.1.39,4.6.79,4.51,1.21,7.52,4.22,9.47,8.43a16.25,16.25,0,0,1,1.11,7.8,25.57,25.57,0,0,1-.77,4.67,2,2,0,0,0,.27,2s0,.14,0,.21c-1.07.13-1.08.12-1.6,1.16a14.22,14.22,0,0,1-8,7.1,3.22,3.22,0,0,0-1,.42,3.38,3.38,0,0,1-2.28.55c-.72,0-1.55-.2-2.1.55ZM24.18,9.71a7.69,7.69,0,0,0,.49,2.2c.93,1.61,2,3.13,3,4.68s2.13,3.2,3.2,4.8l.18,0c0-.16,0-.31,0-.47a3.93,3.93,0,0,1,.06-.69,8.83,8.83,0,0,0,.36-1.1,36.52,36.52,0,0,0,.15-4.31,17.78,17.78,0,0,0-.68-4,5.64,5.64,0,0,0-.7-1.9c-1.84-2.75-3.86-5.29-7.2-6.36a23,23,0,0,0-6-1.13c.14.21.2.31.27.4C19,4,20.62,6.19,22.22,8.44,22.74,9.19,23.18,10,24.18,9.71Zm-13,10.2.27-.11c.27.55.42,1.27.85,1.62a5.66,5.66,0,0,0,3.15,1.47c2.45.16,4.4-.4,5.41-2.58a16.65,16.65,0,0,0,.88-3.24,3.55,3.55,0,0,0-1.37-3.6,11.68,11.68,0,0,0-1.54-1.06,2.94,2.94,0,0,0-2.51-.33,12.25,12.25,0,0,0-2.46,1.08,6.63,6.63,0,0,0-3,4.7c-.35,1.91,0,3.95.05,5.9h3.44a14.12,14.12,0,0,1-2-1.68C11.8,21.47,11,20.88,11.15,19.91ZM21.55,9.69,16.06,1.76,10,10.25ZM24.4,14.1c0,.33,0,.48,0,.62,0,1.87.14,3.74.15,5.62a15.15,15.15,0,0,1-.26,2.12c-.08.64,0,1,.81,1,1.74-.09,3.48-.1,5.22-.14a1.27,1.27,0,0,0,.33-.12Zm-1.49,1.33c0-1.24.05-2.35,0-3.45,0-.31-.37-.82-.6-.84-1.05-.09-2.12,0-3.18,0l0,.26A6.14,6.14,0,0,1,22.91,15.43Zm-.11,4.34a8.79,8.79,0,0,1-3.37,3.67h3.64Zm-12-8.21v3.07l-.23-.28,3-3Z"/><path d="M1.16,19.59a1.63,1.63,0,0,1-.4-2.15C1.33,18.07,1.1,18.85,1.16,19.59Z"/></g></g></svg>